<svg xmlns="http://www.w3.org/2000/svg" width="2048" height="2048" viewBox="0 0 2048 2048" version="1.1"><path d="M 539.724 188.080 C 65.982 374.048, 60.916 376.008, 57.973 374.486 L 54.998 372.948 55.249 981.638 L 55.500 1590.328 537.433 1818.151 C 802.496 1943.454, 1019.712 2046.534, 1020.135 2047.219 C 1020.719 2048.163, 1022.184 2047.844, 1026.202 2045.900 C 1029.116 2044.489, 1246.487 1941.714, 1509.250 1817.509 L 1987 1591.683 1987 986.949 L 1987 382.214 1990.737 380.723 L 1994.474 379.233 1989.987 377.227 C 1978.778 372.216, 1023.216 0.583, 1021 0.373 C 1019.578 0.239, 812.024 81.189, 539.724 188.080 M 897.250 109.275 C 830.013 135.727, 775 157.638, 775 157.967 C 775 158.782, 1576.139 510.998, 1578.011 511.006 C 1579.658 511.013, 1848.919 384.799, 1848.961 384 C 1848.993 383.420, 1024.447 62.121, 1021.481 61.558 C 1020.392 61.351, 964.487 82.824, 897.250 109.275 M 362.830 318.859 C 272.262 354.411, 198.462 383.809, 198.830 384.187 C 199.199 384.565, 382.425 471.460, 606 577.288 C 829.575 683.117, 1014.318 770.631, 1016.540 771.765 L 1020.581 773.827 1181.018 698.386 C 1269.259 656.893, 1341.820 622.580, 1342.266 622.134 C 1342.875 621.525, 533.613 255.923, 528.500 254.496 C 527.950 254.343, 453.399 283.306, 362.830 318.859 M 112.249 1008.527 L 112.500 1554.032 537.500 1754.988 C 771.250 1865.513, 962.838 1955.956, 963.251 1955.972 C 963.664 1955.987, 963.889 1710.668, 963.751 1410.818 L 963.500 865.637 543 666.879 C 311.725 557.562, 120.137 466.973, 117.249 465.571 L 111.998 463.021 112.249 1008.527 M 1780.181 535.344 L 1631.861 605.500 1632.533 792 L 1633.205 978.500 1530.533 1029.347 C 1474.064 1057.313, 1427.586 1079.920, 1427.251 1079.584 C 1426.915 1079.248, 1427.705 994.163, 1429.005 890.505 C 1430.306 786.848, 1431.127 701.794, 1430.831 701.497 C 1430.534 701.201, 1350.913 738.480, 1253.896 784.340 L 1077.500 867.721 1077.249 1412.861 C 1077.111 1712.687, 1077.319 1958, 1077.712 1958 C 1078.701 1958, 1927.202 1556.922, 1928.750 1555.723 C 1929.747 1554.951, 1930 1444.596, 1930 1009.878 C 1930 710.195, 1929.662 465.042, 1929.250 465.094 C 1928.838 465.146, 1861.756 496.758, 1780.181 535.344" stroke="none" fill="#040404" fill-rule="evenodd"/><path d="M 897.250 109.275 C 830.013 135.727, 775 157.638, 775 157.967 C 775 158.782, 1576.139 510.998, 1578.011 511.006 C 1579.658 511.013, 1848.919 384.799, 1848.961 384 C 1848.993 383.420, 1024.447 62.121, 1021.481 61.558 C 1020.392 61.351, 964.487 82.824, 897.250 109.275 M 362.830 318.859 C 272.262 354.411, 198.462 383.809, 198.830 384.187 C 199.199 384.565, 382.425 471.460, 606 577.288 C 829.575 683.117, 1014.318 770.631, 1016.540 771.765 L 1020.581 773.827 1181.018 698.386 C 1269.259 656.893, 1341.820 622.580, 1342.266 622.134 C 1342.875 621.525, 533.613 255.923, 528.500 254.496 C 527.950 254.343, 453.399 283.306, 362.830 318.859 M 112.249 1008.527 L 112.500 1554.032 537.500 1754.988 C 771.250 1865.513, 962.838 1955.956, 963.251 1955.972 C 963.664 1955.987, 963.889 1710.668, 963.751 1410.818 L 963.500 865.637 543 666.879 C 311.725 557.562, 120.137 466.973, 117.249 465.571 L 111.998 463.021 112.249 1008.527 M 1780.181 535.344 L 1631.861 605.500 1632.533 792 L 1633.205 978.500 1530.533 1029.347 C 1474.064 1057.313, 1427.586 1079.920, 1427.251 1079.584 C 1426.915 1079.248, 1427.705 994.163, 1429.005 890.505 C 1430.306 786.848, 1431.127 701.794, 1430.831 701.497 C 1430.534 701.201, 1350.913 738.480, 1253.896 784.340 L 1077.500 867.721 1077.249 1412.861 C 1077.111 1712.687, 1077.319 1958, 1077.712 1958 C 1078.701 1958, 1927.202 1556.922, 1928.750 1555.723 C 1929.747 1554.951, 1930 1444.596, 1930 1009.878 C 1930 710.195, 1929.662 465.042, 1929.250 465.094 C 1928.838 465.146, 1861.756 496.758, 1780.181 535.344" stroke="none" fill="#fbfbfb" fill-rule="evenodd"/></svg>